<svg id="Grupo_53" data-name="Grupo 53" xmlns="http://www.w3.org/2000/svg" width="142.548" height="38" viewBox="0 0 142.548 38">
  <g id="Grupo_52" data-name="Grupo 52" transform="translate(0)">
    <path id="Caminho_174" data-name="Caminho 174" d="M-28.346,0H-170.894V38H-28.346V0Z" transform="translate(170.894)" fill="#fff" fill-rule="evenodd"/>
    <path id="Caminho_175" data-name="Caminho 175" d="M-132.526,13.963c1.575-6.823-4.461-9.081-10.97-9.081-8.45.1-14.066,4.986-16.008,14.065s1.469,14.119,9.92,14.119c6.561,0,13.593-2.36,14.958-9.185H-142.5c-.735,2.573-2.835,3.938-5.984,3.938-4.2,0-4.093-4.621-3.2-8.557.84-4.041,2.729-9.131,7.034-9.131,3.1,0,4.619,1.417,4.251,3.832Z" transform="translate(170.894)" fill-rule="evenodd"/>
    <path id="Caminho_176" data-name="Caminho 176" d="M-124.706,32.542l5.825-27.082h-7.453l-5.878,27.082Z" transform="translate(170.894)" fill-rule="evenodd"/>
    <path id="Caminho_177" data-name="Caminho 177" d="M-98.935,32.542l1.1-5.249H-110.9l1.207-5.773h12.072l1.154-5.2h-12.072l1.207-5.617h13.07L-93.11,5.46h-20.627l-5.826,27.082Z" transform="translate(170.894)" fill-rule="evenodd"/>
    <path id="Caminho_178" data-name="Caminho 178" d="M-68.337,13.437c1.89-6.56-3.412-8.555-9.027-8.555-5.669,0-11.652,1.784-13.331,8.188-.631,2.938.209,5.405,2.676,6.614,5.3,2.571,11.022,1.782,10.234,5.457-.367,1.785-2.781,2.678-4.513,2.678-2.677,0-4.251-1.365-3.674-3.938h-7.506c-1.469,7.348,3.675,9.185,9.973,9.185,6.245,0,12.491-2.675,13.7-8.4,1.575-7.3-4.934-7.716-9.237-8.87-1.837-.526-4.094-1.209-3.675-3.15.263-1.365,2.048-2.519,3.728-2.519a3.548,3.548,0,0,1,2.729.891,2.477,2.477,0,0,1,.471,2.415Z" transform="translate(170.894)" fill-rule="evenodd"/>
    <path id="Caminho_179" data-name="Caminho 179" d="M-59.415,32.542l2.046-9.711h4.986c6.612,0,11.386-2.1,12.8-8.659S-42.047,5.46-48.656,5.46H-61.094L-66.92,32.542Zm3.2-14.906,1.469-6.929h3.883c2.938.107,3.884,1.472,3.413,3.465-.422,1.995-1.944,3.308-4.936,3.464Z" transform="translate(170.894)" fill-rule="evenodd"/>
    <path id="Caminho_180" data-name="Caminho 180" d="M-36.167,30.914h7.821v1h-7.821v-1Zm0-6.244h7.821v.943h-7.821V24.67Zm0-6.51h7.821v1h-7.821v-1Zm0-6.4h7.821V12.7h-7.821v-.943Zm0-6.247h7.821v.946h-7.821V5.512Z" transform="translate(170.894)" fill-rule="evenodd"/>
    <path id="Caminho_181" data-name="Caminho 181" d="M-170.894,30.914h7.821v1h-7.821v-1Zm0-6.244h7.821v.943h-7.821V24.67Zm0-6.51h7.821v1h-7.821v-1Zm0-6.4h7.821V12.7h-7.821v-.943Zm0-6.247h7.821v.946h-7.821V5.512Z" transform="translate(170.894)" fill-rule="evenodd"/>
  </g>
</svg>
