<svg id="Componente_2_1" data-name="Componente 2 – 1" xmlns="http://www.w3.org/2000/svg" width="142.55" height="38" viewBox="0 0 142.55 38">
  <path id="Caminho_9" data-name="Caminho 9" d="M-163.541,0h-142.55V38h142.55V0Z" transform="translate(306.091)" fill="red" fill-rule="evenodd"/>
  <path id="Caminho_10" data-name="Caminho 10" d="M-267.723,13.962c1.575-6.823-4.461-9.08-10.97-9.08-8.45.1-14.066,4.985-16.008,14.065s1.469,14.119,9.92,14.119c6.561,0,13.593-2.36,14.958-9.186H-277.7c-.735,2.574-2.835,3.939-5.984,3.939-4.2,0-4.093-4.621-3.2-8.557.84-4.04,2.729-9.132,7.034-9.132,3.1,0,4.619,1.417,4.251,3.832Z" transform="translate(306.091)" fill="#fff" fill-rule="evenodd"/>
  <path id="Caminho_11" data-name="Caminho 11" d="M-259.9,32.542l5.825-27.083h-7.453l-5.878,27.083Z" transform="translate(306.091)" fill="#fff" fill-rule="evenodd"/>
  <path id="Caminho_12" data-name="Caminho 12" d="M-234.132,32.542l1.1-5.249H-246.1l1.207-5.773h12.072l1.154-5.2h-12.072l1.207-5.615h13.07l1.154-5.248h-20.627l-5.826,27.083Z" transform="translate(306.091)" fill="#fff" fill-rule="evenodd"/>
  <path id="Caminho_13" data-name="Caminho 13" d="M-203.533,13.437c1.89-6.561-3.412-8.555-9.027-8.555-5.669,0-11.653,1.783-13.332,8.187-.63,2.939.21,5.406,2.677,6.614,5.3,2.572,11.022,1.782,10.234,5.458-.367,1.785-2.781,2.678-4.513,2.678-2.677,0-4.252-1.365-3.675-3.939h-7.5c-1.469,7.349,3.675,9.186,9.972,9.186,6.246,0,12.492-2.676,13.7-8.4,1.575-7.3-4.934-7.717-9.237-8.871-1.837-.525-4.094-1.208-3.675-3.15.263-1.365,2.048-2.519,3.728-2.519a3.544,3.544,0,0,1,2.729.892,2.479,2.479,0,0,1,.472,2.415Z" transform="translate(306.091)" fill="#fff" fill-rule="evenodd"/>
  <path id="Caminho_14" data-name="Caminho 14" d="M-194.611,32.542l2.046-9.712h4.986c6.613,0,11.387-2.1,12.8-8.658s-2.467-8.713-9.078-8.713H-196.29l-5.826,27.083Zm3.2-14.907,1.47-6.928h3.883c2.939.106,3.884,1.471,3.413,3.465-.422,1.994-1.944,3.307-4.936,3.463Z" transform="translate(306.091)" fill="#fff" fill-rule="evenodd"/>
  <path id="Caminho_15" data-name="Caminho 15" d="M-171.362,30.914h7.821v1h-7.821v-1Zm0-6.244h7.821v.943h-7.821V24.67Zm0-6.51h7.821v1h-7.821v-1Zm0-6.4h7.821V12.7h-7.821v-.945Zm0-6.247h7.821v.946h-7.821V5.511Z" transform="translate(306.091)" fill="#fff" fill-rule="evenodd"/>
  <path id="Caminho_16" data-name="Caminho 16" d="M-306.091,30.914h7.821v1h-7.821v-1Zm0-6.244h7.821v.943h-7.821V24.67Zm0-6.51h7.821v1h-7.821v-1Zm0-6.4h7.821V12.7h-7.821v-.945Zm0-6.247h7.821v.946h-7.821V5.511Z" transform="translate(306.091)" fill="#fff" fill-rule="evenodd"/>
</svg>
